<svg width="84.85" height="35.94" viewBox="-1.5700032742146561 -7.380000283862884 90.85000696110407 41.94000036855721" xmlns="http://www.w3.org/2000/svg"><g id="svgGroup" stroke-linecap="round" fill-rule="evenodd" font-size="9pt" stroke="#000" stroke-width="0.25mm" fill="#000" style="stroke:#000;stroke-width:0.25mm;fill:#000"><path d="M 51.37 28.62 L 50.89 28.62 Q 50.782 28.62 50.6 28.644 A 4.971 4.971 0 0 0 50.56 28.65 Q 50.354 28.679 50.062 28.853 A 2.931 2.931 0 0 0 50.05 28.86 Q 49.99 28.92 49.813 29.157 A 18.108 18.108 0 0 0 49.81 29.16 Q 49.639 29.388 49.522 29.399 A 0.125 0.125 0 0 1 49.51 29.4 A 0.751 0.751 0 0 1 49.487 29.4 Q 49.404 29.397 49.442 29.374 A 0.122 0.122 0 0 1 49.45 29.37 A 0.124 0.124 0 0 0 49.458 29.366 Q 49.501 29.34 49.39 29.34 Q 49.293 29.34 49.138 29.438 A 1.586 1.586 0 0 0 49.06 29.49 Q 48.911 29.596 48.868 29.687 A 0.169 0.169 0 0 0 48.85 29.76 A 0.185 0.185 0 0 0 48.879 29.856 Q 48.915 29.916 48.997 29.977 A 0.849 0.849 0 0 0 49.03 30 Q 49.57 30.06 49.99 30.12 A 5.275 5.275 0 0 0 50.33 30.157 Q 50.521 30.171 50.739 30.177 A 10.777 10.777 0 0 0 51.01 30.18 A 0.405 0.405 0 0 0 51.127 30.164 A 0.346 0.346 0 0 0 51.22 30.12 A 0.358 0.358 0 0 1 51.388 30.062 A 0.45 0.45 0 0 1 51.43 30.06 A 0.383 0.383 0 0 1 51.498 30.066 Q 51.535 30.072 51.564 30.087 A 0.178 0.178 0 0 1 51.61 30.12 L 51.73 30.24 Q 52.03 30.36 52.45 30.33 A 1.667 1.667 0 0 1 52.569 30.326 A 1.458 1.458 0 0 1 53.23 30.48 L 53.53 30.48 A 2.652 2.652 0 0 1 54.038 30.527 A 2.154 2.154 0 0 1 54.4 30.63 A 6.543 6.543 0 0 0 54.537 30.681 Q 54.751 30.758 54.858 30.775 A 0.337 0.337 0 0 0 54.91 30.78 Q 55.026 30.78 55.002 30.752 A 0.036 0.036 0 0 0 55 30.75 A 0.065 0.065 0 0 1 54.996 30.745 Q 54.977 30.722 55.021 30.72 A 0.2 0.2 0 0 1 55.03 30.72 A 0.477 0.477 0 0 1 55.032 30.72 Q 55.126 30.72 55.164 30.758 A 0.083 0.083 0 0 1 55.18 30.78 Q 55.208 30.836 55.263 30.893 A 0.663 0.663 0 0 0 55.27 30.9 Q 56.05 30.9 56.71 31.38 Q 56.826 31.38 56.802 31.352 A 0.036 0.036 0 0 0 56.8 31.35 A 0.065 0.065 0 0 1 56.796 31.345 Q 56.777 31.322 56.821 31.32 A 0.2 0.2 0 0 1 56.83 31.32 A 1.532 1.532 0 0 1 56.837 31.32 Q 57.311 31.322 57.43 31.62 A 0.73 0.73 0 0 0 57.651 31.812 Q 57.751 31.87 57.878 31.91 A 1.636 1.636 0 0 0 58.03 31.95 Q 58.444 32.039 58.333 32.332 A 0.482 0.482 0 0 1 58.33 32.34 L 58.27 32.34 A 0.288 0.288 0 0 1 58.198 32.329 Q 58.123 32.31 58.019 32.254 A 1.979 1.979 0 0 1 57.91 32.19 A 1.993 1.993 0 0 0 57.804 32.128 Q 57.642 32.04 57.55 32.04 A 0.088 0.088 0 0 0 57.535 32.041 Q 57.496 32.048 57.518 32.096 A 0.155 0.155 0 0 0 57.52 32.1 Q 57.549 32.157 57.441 32.16 A 0.44 0.44 0 0 1 57.43 32.16 A 0.985 0.985 0 0 1 57.206 32.132 Q 56.994 32.082 56.729 31.945 A 3.544 3.544 0 0 1 56.68 31.92 Q 56.23 31.68 55.57 31.68 Q 55.453 31.68 55.479 31.623 A 0.078 0.078 0 0 1 55.48 31.62 Q 55.509 31.563 55.401 31.56 A 0.44 0.44 0 0 0 55.39 31.56 A 0.255 0.255 0 0 0 55.298 31.578 A 0.314 0.314 0 0 0 55.27 31.59 A 0.224 0.224 0 0 1 55.227 31.606 Q 55.18 31.618 55.113 31.62 A 0.892 0.892 0 0 1 55.09 31.62 Q 55.019 31.62 54.99 31.641 A 0.046 0.046 0 0 0 54.97 31.68 L 54.97 31.5 Q 54.55 31.5 54.16 31.41 Q 53.77 31.32 53.35 31.32 A 0.293 0.293 0 0 0 53.252 31.338 Q 53.21 31.353 53.166 31.38 A 0.78 0.78 0 0 0 53.081 31.439 A 0.55 0.55 0 0 1 52.907 31.535 A 0.502 0.502 0 0 1 52.75 31.56 A 0.086 0.086 0 0 1 52.726 31.557 Q 52.7 31.549 52.693 31.522 A 0.088 0.088 0 0 1 52.69 31.5 A 0.048 0.048 0 0 0 52.66 31.455 Q 52.637 31.443 52.595 31.441 A 0.404 0.404 0 0 0 52.57 31.44 Q 52.499 31.44 52.47 31.461 A 0.046 0.046 0 0 0 52.45 31.5 A 0.048 0.048 0 0 1 52.42 31.545 Q 52.397 31.557 52.355 31.559 A 0.404 0.404 0 0 1 52.33 31.56 Q 52.15 31.56 52 31.47 Q 51.85 31.38 51.67 31.38 Q 51.61 31.38 51.61 31.56 A 1.845 1.845 0 0 1 51.441 31.553 Q 51.164 31.527 51.07 31.41 Q 51.003 31.326 50.935 31.289 A 0.217 0.217 0 0 0 50.83 31.26 Q 50.59 31.26 50.26 31.38 Q 49.93 31.5 49.63 31.5 A 0.253 0.253 0 0 1 49.555 31.489 A 0.191 0.191 0 0 1 49.45 31.41 A 0.194 0.194 0 0 0 49.309 31.323 A 0.283 0.283 0 0 0 49.27 31.32 L 48.49 31.32 L 48.37 31.44 A 2.013 2.013 0 0 0 48.318 31.377 Q 48.127 31.157 48.1 31.29 A 0.298 0.298 0 0 1 48.082 31.35 Q 48.044 31.437 47.955 31.44 A 0.187 0.187 0 0 1 47.95 31.44 A 0.056 0.056 0 0 1 47.933 31.438 Q 47.896 31.426 47.918 31.356 A 0.296 0.296 0 0 1 47.92 31.35 Q 47.949 31.263 47.839 31.26 A 0.298 0.298 0 0 0 47.83 31.26 L 47.35 31.26 A 0.11 0.11 0 0 1 47.333 31.323 Q 47.304 31.366 47.226 31.377 A 0.416 0.416 0 0 1 47.17 31.38 A 0.088 0.088 0 0 1 47.155 31.379 Q 47.116 31.372 47.138 31.324 A 0.155 0.155 0 0 1 47.14 31.32 Q 47.169 31.263 47.061 31.26 A 0.44 0.44 0 0 0 47.05 31.26 Q 46.996 31.26 46.917 31.309 A 0.649 0.649 0 0 0 46.9 31.32 A 0.358 0.358 0 0 1 46.732 31.378 A 0.45 0.45 0 0 1 46.69 31.38 A 0.387 0.387 0 0 1 46.583 31.364 Q 46.537 31.351 46.486 31.326 A 0.862 0.862 0 0 1 46.42 31.29 A 0.804 0.804 0 0 0 46.323 31.24 Q 46.271 31.218 46.224 31.208 A 0.364 0.364 0 0 0 46.15 31.2 L 45.76 31.2 Q 45.539 31.2 45.418 31.24 A 0.371 0.371 0 0 0 45.37 31.26 Q 45.314 31.316 45.284 31.372 A 0.342 0.342 0 0 0 45.28 31.38 A 0.084 0.084 0 0 1 45.279 31.381 Q 45.251 31.435 45.148 31.44 A 0.44 0.44 0 0 1 45.13 31.44 A 0.086 0.086 0 0 1 45.106 31.437 Q 45.08 31.429 45.073 31.402 A 0.088 0.088 0 0 1 45.07 31.38 A 0.048 0.048 0 0 0 45.04 31.335 Q 45.017 31.323 44.975 31.321 A 0.404 0.404 0 0 0 44.95 31.32 L 44.53 31.38 A 0.069 0.069 0 0 0 44.494 31.392 Q 44.445 31.422 44.38 31.53 A 0.461 0.461 0 0 1 44.331 31.598 Q 44.3 31.633 44.267 31.653 A 0.186 0.186 0 0 1 44.17 31.68 Q 44.134 31.68 44.12 31.669 A 0.023 0.023 0 0 1 44.11 31.65 Q 44.11 31.62 43.993 31.62 A 0.919 0.919 0 0 0 43.99 31.62 A 0.387 0.387 0 0 0 43.883 31.636 Q 43.837 31.649 43.786 31.674 A 0.862 0.862 0 0 0 43.72 31.71 A 0.804 0.804 0 0 1 43.623 31.76 Q 43.571 31.782 43.524 31.792 A 0.364 0.364 0 0 1 43.45 31.8 Q 43.414 31.8 43.4 31.789 A 0.023 0.023 0 0 1 43.39 31.77 Q 43.39 31.74 43.273 31.74 A 0.919 0.919 0 0 0 43.27 31.74 Q 43.171 31.74 43.071 31.822 A 0.597 0.597 0 0 0 43.03 31.86 A 0.194 0.194 0 0 0 42.997 31.905 Q 42.961 31.973 42.94 32.1 A 0.57 0.57 0 0 1 42.876 32.287 A 0.517 0.517 0 0 1 42.79 32.4 A 0.135 0.135 0 0 1 42.772 32.415 Q 42.721 32.451 42.67 32.4 Q 42.62 32.35 42.529 32.342 A 0.422 0.422 0 0 0 42.49 32.34 A 0.477 0.477 0 0 0 42.414 32.347 Q 42.303 32.365 42.13 32.43 Q 41.965 32.492 41.856 32.568 A 0.653 0.653 0 0 0 41.77 32.64 A 0.567 0.567 0 0 1 41.593 32.67 A 0.566 0.566 0 0 1 41.411 32.64 Q 41.274 32.595 41.137 32.652 A 0.533 0.533 0 0 0 41.05 32.7 A 1.676 1.676 0 0 0 40.949 32.738 Q 40.758 32.816 40.39 33 A 8.482 8.482 0 0 1 40.223 33.082 Q 39.888 33.24 39.79 33.24 A 0.253 0.253 0 0 1 39.715 33.229 A 0.191 0.191 0 0 1 39.61 33.15 A 0.194 0.194 0 0 0 39.469 33.063 A 0.283 0.283 0 0 0 39.43 33.06 Q 39.264 33.06 38.918 33.342 A 4.124 4.124 0 0 0 38.86 33.39 A 2.645 2.645 0 0 1 38.68 33.53 Q 38.412 33.72 38.23 33.72 A 0.31 0.31 0 0 1 38.185 33.716 Q 38.162 33.713 38.136 33.706 A 0.775 0.775 0 0 1 38.08 33.69 A 0.782 0.782 0 0 0 38.027 33.674 Q 37.999 33.667 37.976 33.664 A 0.311 0.311 0 0 0 37.93 33.66 A 0.24 0.24 0 0 0 37.813 33.694 Q 37.679 33.769 37.517 34.01 A 2.45 2.45 0 0 0 37.51 34.02 L 37.39 33.9 A 2.001 2.001 0 0 1 37.049 34.032 A 2.453 2.453 0 0 1 36.85 34.08 Q 36.55 34.14 36.31 34.02 Q 36.19 33.9 36.19 33.72 A 0.094 0.094 0 0 1 36.22 33.66 Q 36.325 33.546 36.79 33.36 A 14.682 14.682 0 0 1 36.998 33.278 Q 37.389 33.129 37.498 33.12 A 0.156 0.156 0 0 1 37.51 33.12 Q 37.63 33.12 37.72 33.15 A 0.782 0.782 0 0 0 37.773 33.166 Q 37.801 33.173 37.824 33.176 A 0.311 0.311 0 0 0 37.87 33.18 Q 37.99 33.18 38.29 33.03 A 2.229 2.229 0 0 1 38.449 32.958 Q 38.641 32.88 38.77 32.88 Q 38.878 32.88 39.06 32.856 A 4.971 4.971 0 0 0 39.1 32.85 A 1.75 1.75 0 0 0 39.222 32.828 Q 39.348 32.801 39.43 32.76 A 0.516 0.516 0 0 0 39.475 32.735 Q 39.519 32.707 39.537 32.679 A 0.071 0.071 0 0 0 39.55 32.64 A 0.048 0.048 0 0 1 39.58 32.595 Q 39.603 32.583 39.645 32.581 A 0.404 0.404 0 0 1 39.67 32.58 Q 39.741 32.58 39.77 32.601 A 0.046 0.046 0 0 1 39.79 32.64 A 0.086 0.086 0 0 0 39.793 32.664 Q 39.801 32.69 39.828 32.697 A 0.088 0.088 0 0 0 39.85 32.7 A 0.293 0.293 0 0 0 39.948 32.682 Q 39.99 32.667 40.034 32.64 A 0.78 0.78 0 0 0 40.119 32.581 A 2.185 2.185 0 0 1 40.228 32.498 Q 40.315 32.438 40.39 32.4 A 18.352 18.352 0 0 0 40.677 32.302 Q 40.803 32.257 40.942 32.207 A 33.022 33.022 0 0 0 41.23 32.1 A 2.195 2.195 0 0 0 41.555 31.949 Q 41.8 31.808 41.95 31.62 A 0.239 0.239 0 0 0 41.973 31.593 Q 42.05 31.49 41.89 31.41 Q 41.71 31.32 41.65 31.32 A 0.108 0.108 0 0 0 41.61 31.329 Q 41.575 31.343 41.533 31.379 A 0.629 0.629 0 0 0 41.5 31.41 A 0.314 0.314 0 0 1 41.407 31.475 A 0.282 0.282 0 0 1 41.29 31.5 A 0.255 0.255 0 0 1 41.198 31.482 A 0.314 0.314 0 0 1 41.17 31.47 A 0.224 0.224 0 0 0 41.127 31.454 Q 41.08 31.442 41.013 31.44 A 0.892 0.892 0 0 0 40.99 31.44 Q 40.57 31.44 40.21 31.47 A 8.666 8.666 0 0 1 39.49 31.5 A 0.387 0.387 0 0 0 39.383 31.516 Q 39.337 31.529 39.286 31.554 A 0.862 0.862 0 0 0 39.22 31.59 A 0.804 0.804 0 0 1 39.123 31.64 Q 39.071 31.662 39.024 31.672 A 0.364 0.364 0 0 1 38.95 31.68 Q 38.71 31.68 38.53 31.56 Q 38.371 31.454 38.165 31.676 A 1.156 1.156 0 0 0 38.11 31.74 L 37.99 31.74 Q 37.664 31.74 37.246 31.831 A 5.851 5.851 0 0 0 37 31.89 L 36.43 32.04 Q 36.13 31.98 36.13 31.62 A 0.98 0.98 0 0 1 36.233 31.194 Q 36.307 31.04 36.433 30.884 A 2.561 2.561 0 0 1 36.67 30.63 A 1.783 1.783 0 0 1 37.447 30.207 Q 37.722 30.134 38.048 30.122 A 3.464 3.464 0 0 1 38.17 30.12 Q 38.65 30.06 39.13 29.94 A 4.167 4.167 0 0 1 39.637 29.845 A 3.256 3.256 0 0 1 40.03 29.82 Q 40.27 29.82 40.48 29.91 A 1.236 1.236 0 0 0 40.655 29.971 Q 40.767 30 40.87 30 A 0.286 0.286 0 0 0 41.074 29.916 A 0.375 0.375 0 0 0 41.08 29.91 A 0.314 0.314 0 0 1 41.173 29.845 A 0.282 0.282 0 0 1 41.29 29.82 Q 41.401 29.82 41.642 29.949 A 3.042 3.042 0 0 1 41.68 29.97 A 0.465 0.465 0 0 0 41.91 30.028 Q 42.057 30.028 42.235 29.949 A 1.498 1.498 0 0 0 42.37 29.88 L 42.55 30 A 0.528 0.528 0 0 0 42.573 29.976 Q 42.605 29.939 42.609 29.916 A 0.035 0.035 0 0 0 42.61 29.91 Q 42.61 29.88 42.727 29.88 A 0.919 0.919 0 0 1 42.73 29.88 A 16.87 16.87 0 0 1 43.51 29.899 A 21.748 21.748 0 0 1 44.17 29.94 Q 44.95 30 45.67 30 A 0.253 0.253 0 0 0 45.745 29.989 A 0.191 0.191 0 0 0 45.85 29.91 Q 45.905 29.828 45.959 29.771 A 0.702 0.702 0 0 1 45.97 29.76 Q 46.085 30.048 46.56 29.866 A 1.773 1.773 0 0 0 46.6 29.85 A 6.939 6.939 0 0 0 47.249 29.541 A 8.538 8.538 0 0 0 47.65 29.31 A 21.414 21.414 0 0 1 47.778 29.233 Q 48.193 28.983 48.249 28.98 A 0.024 0.024 0 0 1 48.25 28.98 A 0.173 0.173 0 0 1 48.297 28.986 Q 48.37 29.007 48.37 29.1 Q 48.572 28.696 48.732 28.696 A 0.129 0.129 0 0 1 48.79 28.71 Q 48.97 28.8 49.09 28.68 L 49.57 28.26 A 0.781 0.781 0 0 1 49.722 28.18 A 0.575 0.575 0 0 1 49.93 28.14 Q 50.11 28.14 50.29 28.02 Q 50.41 27.96 50.47 27.78 Q 50.53 27.6 50.71 27.6 Q 50.826 27.6 50.802 27.628 A 0.036 0.036 0 0 1 50.8 27.63 A 0.065 0.065 0 0 0 50.796 27.635 Q 50.777 27.658 50.821 27.66 A 0.2 0.2 0 0 0 50.83 27.66 A 0.391 0.391 0 0 0 50.966 27.633 Q 51.078 27.592 51.208 27.485 A 1.59 1.59 0 0 0 51.25 27.45 A 2.014 2.014 0 0 1 51.349 27.368 Q 51.516 27.24 51.61 27.24 Q 51.726 27.24 51.702 27.268 A 0.036 0.036 0 0 1 51.7 27.27 A 0.065 0.065 0 0 0 51.696 27.275 Q 51.677 27.298 51.721 27.3 A 0.2 0.2 0 0 0 51.73 27.3 A 0.257 0.257 0 0 0 51.814 27.284 Q 51.908 27.251 52.03 27.15 Q 52.173 27.031 52.279 27.006 A 0.228 0.228 0 0 1 52.33 27 A 0.086 0.086 0 0 1 52.354 27.003 Q 52.38 27.011 52.387 27.038 A 0.088 0.088 0 0 1 52.39 27.06 A 0.086 0.086 0 0 0 52.393 27.084 Q 52.401 27.11 52.428 27.117 A 0.088 0.088 0 0 0 52.45 27.12 Q 52.554 27.12 52.749 26.893 A 2.677 2.677 0 0 0 52.81 26.82 A 4.155 4.155 0 0 1 52.909 26.7 Q 53.056 26.531 53.146 26.474 A 0.28 0.28 0 0 1 53.17 26.46 Q 53.29 26.4 53.41 26.43 A 0.365 0.365 0 0 0 53.444 26.437 Q 53.494 26.444 53.532 26.434 A 0.131 0.131 0 0 0 53.59 26.4 Q 54.07 26.16 54.52 25.83 A 10.023 10.023 0 0 1 55.044 25.47 A 8.085 8.085 0 0 1 55.39 25.26 Q 55.63 25.08 55.96 25.02 Q 56.29 24.96 56.53 24.78 A 0.345 0.345 0 0 0 56.665 24.657 A 0.493 0.493 0 0 0 56.71 24.57 Q 56.759 24.446 56.809 24.384 A 0.276 0.276 0 0 1 56.83 24.36 A 3.073 3.073 0 0 1 57.136 24.228 A 3.88 3.88 0 0 1 57.37 24.15 A 0.718 0.718 0 0 0 57.523 24.085 Q 57.687 23.991 57.73 23.82 A 0.607 0.607 0 0 1 57.875 23.612 Q 58.022 23.468 58.292 23.351 A 2.602 2.602 0 0 1 58.39 23.31 Q 58.93 23.1 59.17 22.86 Q 59.266 22.764 59.362 22.764 A 0.197 0.197 0 0 1 59.41 22.77 A 1.711 1.711 0 0 0 59.466 22.783 Q 59.545 22.8 59.59 22.8 A 1.115 1.115 0 0 0 59.684 22.747 Q 59.734 22.715 59.789 22.675 A 2.332 2.332 0 0 0 59.86 22.62 A 2.185 2.185 0 0 1 59.968 22.538 Q 60.055 22.478 60.13 22.44 A 0.492 0.492 0 0 1 60.304 22.329 Q 60.37 22.304 60.449 22.292 A 0.872 0.872 0 0 1 60.46 22.29 Q 60.67 22.26 60.85 22.2 L 62.41 21.24 A 1.082 1.082 0 0 0 62.534 21.094 Q 62.65 20.927 62.65 20.76 Q 62.05 19.8 61.45 18.9 Q 60.85 18 60.19 17.16 Q 60.13 16.8 59.98 16.68 Q 59.846 16.573 59.64 16.417 A 28.363 28.363 0 0 0 59.59 16.38 L 59.53 16.14 A 6.424 6.424 0 0 1 59.256 15.907 Q 59.073 15.743 58.87 15.54 A 1.684 1.684 0 0 1 58.627 15.238 A 1.231 1.231 0 0 1 58.45 14.76 L 57.01 12.84 L 56.95 12.6 Q 56.77 12.36 56.56 12.24 Q 56.35 12.12 56.23 11.88 A 5.847 5.847 0 0 0 55.795 11.306 A 5.287 5.287 0 0 0 55.72 11.22 A 5.687 5.687 0 0 1 55.27 10.649 A 6.336 6.336 0 0 1 55.21 10.56 A 0.896 0.896 0 0 0 55.202 10.433 Q 55.192 10.366 55.171 10.309 A 0.477 0.477 0 0 0 55.15 10.26 Q 54.61 9.72 54.16 9.18 Q 53.71 8.64 53.23 8.04 A 0.361 0.361 0 0 0 53.121 7.966 A 0.443 0.443 0 0 0 53.08 7.95 A 1.18 1.18 0 0 1 53.008 7.923 Q 52.969 7.907 52.925 7.886 A 2.41 2.41 0 0 1 52.87 7.86 A 9.273 9.273 0 0 0 51.971 6.903 A 8.266 8.266 0 0 0 51.73 6.69 Q 51.13 6.18 50.59 5.58 A 1.114 1.114 0 0 0 50.519 5.487 Q 50.358 5.295 49.96 4.92 Q 49.45 4.44 48.94 3.99 A 9.019 9.019 0 0 0 48.762 3.837 Q 48.408 3.54 48.31 3.54 L 47.95 3.54 A 1.668 1.668 0 0 0 47.905 3.638 Q 47.882 3.694 47.858 3.759 A 3.407 3.407 0 0 0 47.83 3.84 A 0.817 0.817 0 0 1 47.744 4.024 A 0.693 0.693 0 0 1 47.65 4.14 L 47.41 4.14 Q 47.29 4.02 47.29 3.84 Q 47.29 3.415 47.619 2.991 A 2.389 2.389 0 0 1 47.71 2.88 Q 48.13 2.4 48.61 2.4 A 0.348 0.348 0 0 0 48.753 2.368 Q 48.801 2.347 48.85 2.31 A 0.991 0.991 0 0 1 48.9 2.275 Q 48.983 2.22 49.03 2.22 A 0.253 0.253 0 0 1 49.105 2.231 A 0.191 0.191 0 0 1 49.21 2.31 Q 49.258 2.382 49.307 2.397 A 0.083 0.083 0 0 0 49.33 2.4 A 0.536 0.536 0 0 0 49.401 2.394 Q 49.512 2.379 49.707 2.323 A 5.31 5.31 0 0 0 49.75 2.31 A 2.15 2.15 0 0 1 49.833 2.287 Q 50.026 2.237 50.091 2.267 A 0.064 0.064 0 0 1 50.11 2.28 A 0.967 0.967 0 0 0 50.172 2.338 Q 50.366 2.5 50.47 2.37 A 1.219 1.219 0 0 1 50.516 2.315 Q 50.602 2.22 50.65 2.22 A 0.574 0.574 0 0 1 50.852 2.261 Q 51.025 2.327 51.236 2.497 A 3.073 3.073 0 0 1 51.4 2.64 Q 51.839 3.05 52.135 2.831 A 0.472 0.472 0 0 0 52.15 2.82 L 52.69 3.3 A 1.626 1.626 0 0 1 52.961 3.499 Q 53.213 3.724 53.495 4.111 A 7.02 7.02 0 0 1 53.62 4.29 Q 54.093 4.986 54.334 5.449 A 5.129 5.129 0 0 1 54.37 5.52 A 2.351 2.351 0 0 0 55.087 6.173 A 2.729 2.729 0 0 0 55.15 6.21 A 2.423 2.423 0 0 1 55.779 6.711 A 2.264 2.264 0 0 1 55.93 6.9 Q 56.11 7.08 56.2 7.44 A 2.43 2.43 0 0 0 56.437 8.043 A 2.271 2.271 0 0 0 56.47 8.1 A 1.484 1.484 0 0 0 56.671 8.345 A 1.039 1.039 0 0 0 57.04 8.58 A 1.547 1.547 0 0 1 57.416 8.782 A 2.087 2.087 0 0 1 57.67 9 A 0.191 0.191 0 0 1 57.667 9.034 Q 57.664 9.052 57.657 9.067 A 0.089 0.089 0 0 1 57.64 9.09 Q 57.615 9.115 57.611 9.16 A 0.211 0.211 0 0 0 57.61 9.18 A 0.856 0.856 0 0 0 57.636 9.397 A 0.573 0.573 0 0 0 57.85 9.72 Q 58.071 9.886 57.936 10.103 A 0.534 0.534 0 0 1 57.91 10.14 Q 57.874 10.14 57.86 10.151 A 0.023 0.023 0 0 0 57.85 10.17 Q 57.85 10.197 57.897 10.2 A 0.202 0.202 0 0 0 57.91 10.2 Q 58.03 10.26 58.24 10.41 Q 58.401 10.525 58.509 10.552 A 0.254 0.254 0 0 0 58.57 10.56 A 2.224 2.224 0 0 1 58.725 10.808 Q 58.793 10.936 58.829 11.054 A 0.877 0.877 0 0 1 58.87 11.31 L 58.87 11.88 Q 58.87 12.3 59.23 12.51 A 2.213 2.213 0 0 1 59.686 12.858 A 1.989 1.989 0 0 1 59.83 13.02 Q 59.875 13.201 60.023 13.518 A 8.689 8.689 0 0 0 60.13 13.74 A 4.229 4.229 0 0 0 60.239 13.945 Q 60.408 14.241 60.543 14.336 A 0.363 0.363 0 0 0 60.55 14.34 Q 60.649 14.389 60.788 14.418 A 1.559 1.559 0 0 0 60.85 14.43 A 0.57 0.57 0 0 1 61.037 14.494 A 0.517 0.517 0 0 1 61.15 14.58 Q 61.307 14.685 61.327 14.928 A 0.894 0.894 0 0 1 61.33 15 Q 61.33 15.3 61.39 15.48 A 0.639 0.639 0 0 0 61.444 15.624 A 0.421 0.421 0 0 0 61.63 15.81 A 1.299 1.299 0 0 1 61.8 15.911 A 1.003 1.003 0 0 1 61.93 16.02 Q 62.041 16.075 62.049 16.284 A 0.879 0.879 0 0 1 62.05 16.32 A 1.63 1.63 0 0 0 62.061 16.519 Q 62.074 16.624 62.102 16.714 A 0.969 0.969 0 0 0 62.11 16.74 A 0.173 0.173 0 0 1 62.116 16.693 Q 62.137 16.62 62.23 16.62 A 0.16 0.16 0 0 1 62.301 16.64 Q 62.395 16.687 62.526 16.848 A 2.239 2.239 0 0 1 62.56 16.89 A 7.04 7.04 0 0 1 62.653 17.012 Q 62.779 17.181 62.826 17.272 A 0.579 0.579 0 0 1 62.83 17.28 A 0.158 0.158 0 0 1 62.865 17.303 Q 62.933 17.364 62.863 17.485 A 0.447 0.447 0 0 1 62.86 17.49 A 0.448 0.448 0 0 0 62.828 17.553 Q 62.783 17.666 62.83 17.76 A 1.962 1.962 0 0 0 62.922 17.925 Q 63.102 18.212 63.282 18.212 A 0.227 0.227 0 0 0 63.31 18.21 A 0.132 0.132 0 0 1 63.326 18.209 Q 63.552 18.209 63.61 19.02 Q 63.659 18.971 63.787 18.962 A 0.89 0.89 0 0 1 63.85 18.96 Q 64.11 18.96 64.167 19.276 A 0.979 0.979 0 0 1 64.18 19.38 A 0.725 0.725 0 0 0 64.209 19.544 Q 64.289 19.8 64.57 19.8 L 65.77 19.02 A 0.688 0.688 0 0 0 65.866 18.977 Q 66.024 18.895 66.319 18.685 A 13.77 13.77 0 0 0 66.52 18.54 Q 67.09 18.12 67.66 17.64 A 51.941 51.941 0 0 1 67.924 17.419 Q 68.29 17.115 68.47 16.98 Q 68.419 17.031 68.433 17.104 A 0.209 0.209 0 0 0 68.44 17.13 A 0.242 0.242 0 0 0 68.455 17.165 Q 68.483 17.22 68.53 17.22 A 0.124 0.124 0 0 0 68.586 17.233 Q 68.669 17.233 68.774 17.13 A 0.947 0.947 0 0 0 68.83 17.07 A 18.517 18.517 0 0 1 68.903 16.985 Q 69.023 16.847 69.07 16.8 L 69.43 16.74 Q 70.163 15.894 71.002 15.578 A 2.988 2.988 0 0 1 71.11 15.54 Q 71.221 15.485 71.229 15.276 A 0.879 0.879 0 0 0 71.23 15.24 A 0.65 0.65 0 0 1 71.388 15.041 Q 71.465 14.974 71.57 14.917 A 1.492 1.492 0 0 1 71.71 14.85 A 0.958 0.958 0 0 0 71.83 14.791 Q 72.059 14.655 72.01 14.46 L 72.07 14.49 Q 72.13 14.52 72.19 14.52 A 0.459 0.459 0 0 0 72.379 14.483 Q 72.489 14.434 72.56 14.319 A 0.63 0.63 0 0 0 72.61 14.22 A 0.956 0.956 0 0 1 72.665 14.103 Q 72.737 13.978 72.825 13.938 A 0.206 0.206 0 0 1 72.91 13.92 A 0.751 0.751 0 0 1 72.933 13.92 Q 73.016 13.923 72.978 13.946 A 0.122 0.122 0 0 1 72.97 13.95 A 0.124 0.124 0 0 0 72.962 13.954 Q 72.919 13.98 73.03 13.98 Q 73.51 13.5 74.26 12.84 A 21.045 21.045 0 0 1 74.801 12.379 Q 75.235 12.023 75.61 11.76 A 0.541 0.541 0 0 0 75.672 11.687 Q 75.702 11.643 75.717 11.6 A 0.252 0.252 0 0 0 75.73 11.52 A 0.383 0.383 0 0 1 75.736 11.452 Q 75.742 11.415 75.757 11.386 A 0.178 0.178 0 0 1 75.79 11.34 A 0.557 0.557 0 0 1 75.854 11.313 Q 76.027 11.252 76.128 11.371 A 0.316 0.316 0 0 1 76.15 11.4 A 0.516 0.516 0 0 0 76.195 11.375 Q 76.239 11.347 76.257 11.319 A 0.071 0.071 0 0 0 76.27 11.28 Q 76.27 11.23 76.311 11.181 A 0.298 0.298 0 0 1 76.33 11.16 L 77.23 10.26 A 0.492 0.492 0 0 1 77.404 10.149 Q 77.47 10.124 77.549 10.112 A 0.872 0.872 0 0 1 77.56 10.11 A 0.387 0.387 0 0 0 77.804 9.972 Q 77.852 9.917 77.89 9.84 A 6.294 6.294 0 0 1 77.96 9.737 Q 78.09 9.551 78.34 9.21 Q 78.67 8.76 79 8.34 Q 79.289 7.973 79.417 7.973 A 0.073 0.073 0 0 1 79.45 7.98 L 79.75 7.98 A 0.314 0.314 0 0 0 79.797 7.921 Q 79.847 7.839 79.821 7.744 A 0.304 0.304 0 0 0 79.81 7.71 Q 79.768 7.605 79.785 7.544 A 0.098 0.098 0 0 1 79.81 7.5 Q 79.93 7.32 80.08 7.11 Q 80.23 6.9 80.41 6.72 Q 80.71 6.42 81.1 6.06 A 2.536 2.536 0 0 0 81.336 5.812 Q 81.452 5.672 81.527 5.532 A 1.244 1.244 0 0 0 81.61 5.34 A 2.458 2.458 0 0 1 81.894 4.902 A 3.099 3.099 0 0 1 82.12 4.65 A 1.685 1.685 0 0 0 82.33 4.398 Q 82.443 4.228 82.49 4.051 A 0.994 0.994 0 0 0 82.51 3.96 A 1.134 1.134 0 0 0 82.57 3.606 A 1.069 1.069 0 0 0 82.57 3.6 Q 82.57 3.42 82.69 3.24 A 2.415 2.415 0 0 0 82.828 3.09 A 2.007 2.007 0 0 0 82.9 3 Q 82.984 2.888 83.042 2.722 A 1.483 1.483 0 0 0 83.05 2.7 A 1.643 1.643 0 0 0 83.105 2.475 Q 83.149 2.232 83.163 1.869 A 9.538 9.538 0 0 0 83.17 1.5 Q 83.17 1.02 83.08 0.63 A 1.301 1.301 0 0 0 83.048 0.515 Q 82.964 0.258 82.82 0.297 A 0.172 0.172 0 0 0 82.81 0.3 L 82.81 0.06 Q 82.85 0.02 82.89 0.007 A 0.126 0.126 0 0 1 82.93 0 Q 83.164 0 83.398 0.171 A 1.229 1.229 0 0 1 83.41 0.18 Q 83.594 0.318 83.673 0.421 A 0.378 0.378 0 0 1 83.71 0.48 A 0.229 0.229 0 0 1 83.756 0.51 Q 83.823 0.567 83.8 0.66 Q 83.77 0.78 83.83 0.9 L 83.95 0.78 A 8.998 8.998 0 0 0 84.149 0.973 Q 84.43 1.238 84.61 1.35 Q 84.848 1.499 84.85 2.151 A 3.618 3.618 0 0 1 84.85 2.16 A 0.824 0.824 0 0 1 84.848 2.217 Q 84.842 2.301 84.817 2.328 A 0.036 0.036 0 0 1 84.79 2.34 A 2.084 2.084 0 0 0 84.742 2.594 A 1.628 1.628 0 0 0 84.73 2.79 L 84.73 3.24 Q 84.457 3.458 84.457 3.627 A 0.202 0.202 0 0 0 84.46 3.66 A 0.45 0.45 0 0 1 84.466 3.719 Q 84.471 3.885 84.372 4.135 A 2.264 2.264 0 0 1 84.37 4.14 L 83.92 5.19 A 3.602 3.602 0 0 1 83.724 5.584 Q 83.526 5.923 83.29 6.12 Q 82.99 6.36 82.81 6.69 Q 82.63 7.02 82.39 7.32 Q 82.287 7.372 82.162 7.445 A 5.658 5.658 0 0 0 82.12 7.47 A 0.7 0.7 0 0 0 82.02 7.542 Q 81.948 7.605 81.91 7.68 A 0.571 0.571 0 0 0 81.853 7.881 A 0.701 0.701 0 0 0 81.85 7.95 A 0.357 0.357 0 0 1 81.771 8.174 A 0.491 0.491 0 0 1 81.73 8.22 A 0.492 0.492 0 0 1 81.556 8.331 Q 81.49 8.356 81.411 8.368 A 0.872 0.872 0 0 1 81.4 8.37 A 1.75 1.75 0 0 0 81.278 8.392 Q 81.153 8.419 81.07 8.46 Q 80.65 8.7 80.68 9.09 A 1.99 1.99 0 0 1 80.686 9.24 Q 80.686 9.406 80.656 9.555 A 1.285 1.285 0 0 1 80.59 9.78 Q 80.536 9.889 80.334 9.923 A 0.948 0.948 0 0 1 80.29 9.93 Q 80.05 9.96 79.93 10.02 Q 79.874 10.076 79.818 10.157 A 1.37 1.37 0 0 0 79.81 10.17 A 0.194 0.194 0 0 1 79.669 10.257 A 0.283 0.283 0 0 1 79.63 10.26 Q 79.594 10.26 79.58 10.249 A 0.023 0.023 0 0 1 79.57 10.23 Q 79.57 10.2 79.453 10.2 A 0.919 0.919 0 0 0 79.45 10.2 Q 79.21 10.2 78.94 10.65 Q 78.67 11.1 78.4 11.58 Q 78.13 12.06 77.77 12.06 Q 77.734 12.06 77.72 12.049 A 0.023 0.023 0 0 1 77.71 12.03 Q 77.71 12 77.593 12 A 0.919 0.919 0 0 0 77.59 12 A 0.053 0.053 0 0 0 77.555 12.015 Q 77.52 12.045 77.485 12.137 A 1.059 1.059 0 0 0 77.47 12.18 A 0.817 0.817 0 0 1 77.384 12.364 A 0.693 0.693 0 0 1 77.29 12.48 A 2.213 2.213 0 0 0 77.152 12.555 Q 77.083 12.596 77.028 12.636 A 0.881 0.881 0 0 0 76.93 12.72 A 1.492 1.492 0 0 1 76.927 12.815 Q 76.917 12.973 76.87 13.02 A 6.406 6.406 0 0 0 76.736 13.159 Q 76.482 13.429 76 13.98 A 127.155 127.155 0 0 1 75.782 14.229 Q 75.406 14.656 75.282 14.787 A 1.763 1.763 0 0 1 75.25 14.82 Q 74.83 15.06 74.35 15.06 Q 73.87 15.06 73.42 15.21 A 0.877 0.877 0 0 0 73.143 15.371 Q 72.911 15.562 72.671 15.945 A 5.248 5.248 0 0 0 72.49 16.26 Q 72.37 16.32 72.19 16.29 A 0.753 0.753 0 0 0 72.125 16.282 Q 72.046 16.276 71.98 16.289 A 0.364 0.364 0 0 0 71.89 16.32 A 0.436 0.436 0 0 0 71.774 16.406 Q 71.724 16.457 71.68 16.53 Q 71.591 16.678 71.415 16.797 A 1.228 1.228 0 0 1 71.41 16.8 Q 71.35 16.86 71.17 16.92 Q 70.99 16.98 70.87 17.16 A 0.193 0.193 0 0 0 70.841 17.2 Q 70.8 17.27 70.759 17.424 A 2.583 2.583 0 0 0 70.75 17.46 A 1.137 1.137 0 0 1 70.703 17.608 Q 70.65 17.74 70.57 17.82 L 70.03 18 Q 69.974 18.056 69.944 18.112 A 0.342 0.342 0 0 0 69.94 18.12 Q 69.912 18.176 69.857 18.233 A 0.663 0.663 0 0 1 69.85 18.24 A 0.212 0.212 0 0 1 69.813 18.268 Q 69.72 18.325 69.46 18.42 Q 69.164 18.527 69.037 18.539 A 0.312 0.312 0 0 1 69.01 18.54 A 0.086 0.086 0 0 1 68.986 18.537 Q 68.96 18.529 68.953 18.502 A 0.088 0.088 0 0 1 68.95 18.48 L 68.95 18.42 A 0.13 0.13 0 0 0 68.886 18.445 Q 68.752 18.53 68.443 18.905 A 10.958 10.958 0 0 0 68.35 19.02 Q 67.901 19.581 67.767 19.723 A 0.932 0.932 0 0 1 67.75 19.74 A 0.061 0.061 0 0 0 67.757 19.732 Q 67.793 19.68 67.57 19.68 Q 67.453 19.68 67.081 20.049 A 6.921 6.921 0 0 0 67.06 20.07 Q 66.737 20.393 66.476 20.448 A 0.509 0.509 0 0 1 66.37 20.46 A 0.324 0.324 0 0 1 66.132 20.357 A 0.517 0.517 0 0 1 66.07 20.28 Q 65.77 20.46 65.59 20.76 Q 65.65 20.82 65.59 20.94 A 0.578 0.578 0 0 0 65.541 21.075 A 0.49 0.49 0 0 0 65.53 21.18 L 65.8 21.66 Q 66.07 22.14 66.37 22.59 A 27.391 27.391 0 0 0 66.474 22.745 Q 66.653 23.01 66.714 23.082 A 0.287 0.287 0 0 0 66.73 23.1 Q 66.85 23.28 66.85 23.49 A 0.593 0.593 0 0 0 66.865 23.627 A 0.396 0.396 0 0 0 66.97 23.82 Q 67.09 23.88 67.24 23.94 A 0.477 0.477 0 0 1 67.342 23.995 A 0.341 0.341 0 0 1 67.45 24.12 Q 67.63 24.36 67.72 24.66 A 1.563 1.563 0 0 0 67.863 24.988 A 2.144 2.144 0 0 0 68.05 25.26 Q 68.1 25.21 68.191 25.202 A 0.422 0.422 0 0 1 68.23 25.2 A 0.087 0.087 0 0 1 68.307 25.248 Q 68.346 25.313 68.35 25.467 A 1.376 1.376 0 0 1 68.35 25.5 A 2.374 2.374 0 0 0 68.354 25.639 Q 68.365 25.83 68.41 25.92 A 0.531 0.531 0 0 0 68.682 26.065 A 0.656 0.656 0 0 0 68.71 26.07 A 0.482 0.482 0 0 1 68.804 26.095 Q 68.907 26.135 68.95 26.22 A 0.679 0.679 0 0 1 69.036 26.327 Q 69.104 26.43 69.16 26.58 Q 69.229 26.764 69.28 26.877 A 1.81 1.81 0 0 0 69.31 26.94 Q 69.361 26.991 69.434 26.977 A 0.209 0.209 0 0 0 69.46 26.97 Q 69.548 26.941 69.607 26.998 A 0.167 0.167 0 0 1 69.61 27 A 3.68 3.68 0 0 1 70.074 27.57 A 4.172 4.172 0 0 1 70.15 27.69 A 24.578 24.578 0 0 0 70.615 28.417 A 22.635 22.635 0 0 0 70.63 28.44 A 1.503 1.503 0 0 1 70.699 28.441 Q 70.854 28.449 70.868 28.491 A 0.028 0.028 0 0 1 70.87 28.5 A 4.528 4.528 0 0 0 71.07 28.86 Q 71.22 29.102 71.38 29.28 A 1.766 1.766 0 0 1 71.738 29.897 A 2.088 2.088 0 0 1 71.77 30 Q 71.925 30.052 72.124 30.103 A 8.001 8.001 0 0 0 72.19 30.12 A 1.463 1.463 0 0 1 72.441 30.206 A 1.197 1.197 0 0 1 72.61 30.3 Q 72.706 30.396 72.706 30.492 A 0.197 0.197 0 0 1 72.7 30.54 Q 72.67 30.66 72.73 30.78 L 72.97 30.9 Q 73.15 31.08 73.24 31.32 Q 73.33 31.56 73.57 31.68 Q 73.81 31.8 74.05 31.89 A 0.444 0.444 0 0 1 74.314 32.157 A 0.718 0.718 0 0 1 74.35 32.28 L 74.89 32.46 Q 75.01 32.52 75.07 32.64 Q 75.109 32.718 75.148 32.771 A 0.44 0.44 0 0 0 75.19 32.82 A 2.115 2.115 0 0 0 75.452 32.888 A 2.508 2.508 0 0 0 75.58 32.91 Q 75.79 32.94 75.91 33.06 Q 76.028 33.119 76.088 33.207 A 0.35 0.35 0 0 1 76.09 33.21 A 0.194 0.194 0 0 0 76.231 33.297 A 0.283 0.283 0 0 0 76.27 33.3 A 1.835 1.835 0 0 0 76.371 33.297 Q 76.544 33.287 76.861 33.249 A 19.514 19.514 0 0 0 76.93 33.24 Q 77.391 33.182 77.52 33.236 A 0.151 0.151 0 0 1 77.53 33.24 L 78.43 32.64 L 78.64 32.01 A 38.923 38.923 0 0 0 78.689 31.861 Q 78.848 31.379 78.85 31.321 A 0.041 0.041 0 0 0 78.85 31.32 Q 78.97 30.84 79.24 30.45 A 2.837 2.837 0 0 0 79.556 29.861 A 2.541 2.541 0 0 0 79.63 29.64 A 3.763 3.763 0 0 0 79.717 29.212 Q 79.81 28.592 79.81 27.6 Q 79.81 26.94 79.78 26.31 A 6.315 6.315 0 0 0 79.752 25.943 Q 79.714 25.586 79.638 25.345 A 1.739 1.739 0 0 0 79.63 25.32 Q 79.473 25.32 79.453 25.138 A 0.525 0.525 0 0 1 79.45 25.08 A 7.826 7.826 0 0 0 79.345 23.816 A 8.616 8.616 0 0 0 79.33 23.73 A 4.207 4.207 0 0 0 79.124 22.964 A 3.494 3.494 0 0 0 78.91 22.5 Q 78.85 22.26 78.82 22.05 Q 78.792 21.853 78.685 21.63 A 2.097 2.097 0 0 0 78.67 21.6 Q 78.55 21.36 78.43 21.21 A 1.634 1.634 0 0 1 78.333 21.073 Q 78.288 21.004 78.243 20.922 A 3.232 3.232 0 0 1 78.19 20.82 Q 78.13 20.52 78.1 20.22 A 2.171 2.171 0 0 0 77.979 19.695 A 2.452 2.452 0 0 0 77.95 19.62 A 2.338 2.338 0 0 0 77.633 19.067 A 2.604 2.604 0 0 0 77.62 19.05 A 2.357 2.357 0 0 1 77.305 18.517 A 2.208 2.208 0 0 1 77.29 18.48 A 3.13 3.13 0 0 1 77.227 18.267 Q 77.17 18.045 77.17 17.88 Q 77.17 17.58 77.2 17.25 Q 77.23 16.92 77.11 16.68 Q 77.06 16.63 77.052 16.539 A 0.422 0.422 0 0 1 77.05 16.5 L 77.05 16.47 Q 77.05 16.443 77.097 16.44 A 0.202 0.202 0 0 1 77.11 16.44 A 0.573 0.573 0 0 1 77.221 16.451 Q 77.275 16.462 77.333 16.483 A 1.088 1.088 0 0 1 77.38 16.5 Q 77.504 16.549 77.566 16.599 A 0.276 0.276 0 0 1 77.59 16.62 Q 78.083 16.675 78.176 17.105 A 0.904 0.904 0 0 1 78.19 17.19 A 3.009 3.009 0 0 0 78.245 17.516 Q 78.312 17.803 78.43 18 Q 78.55 18.12 78.7 18.21 A 0.471 0.471 0 0 1 78.898 18.447 A 0.607 0.607 0 0 1 78.91 18.48 Q 79.03 18.72 79.15 18.93 Q 79.27 19.14 79.27 19.38 L 79.51 20.7 A 0.945 0.945 0 0 1 79.55 20.743 Q 79.598 20.797 79.66 20.88 A 1.666 1.666 0 0 1 79.767 21.041 A 1.411 1.411 0 0 1 79.81 21.12 Q 79.93 21.24 80.05 21.6 A 0.747 0.747 0 0 1 80.081 21.734 Q 80.1 21.873 80.08 22.05 A 4.963 4.963 0 0 0 80.054 22.376 A 4.12 4.12 0 0 0 80.05 22.56 Q 80.17 23.1 80.32 23.64 Q 80.47 24.18 80.59 24.66 L 80.59 24.84 Q 80.59 24.96 80.62 25.05 L 80.71 25.32 Q 80.71 25.378 80.682 25.52 A 3.891 3.891 0 0 1 80.68 25.53 Q 80.65 25.68 80.71 25.8 Q 80.71 26.04 80.86 26.37 Q 80.98 26.634 81.004 26.802 A 0.553 0.553 0 0 1 81.01 26.88 Q 81.01 26.932 80.919 27.052 A 1.691 1.691 0 0 1 80.89 27.09 A 2.185 2.185 0 0 0 80.808 27.198 Q 80.748 27.285 80.71 27.36 Q 80.65 27.54 80.65 27.72 L 80.65 28.08 L 80.65 28.44 A 1.132 1.132 0 0 1 80.59 28.799 A 0.965 0.965 0 0 1 80.59 28.8 A 2.399 2.399 0 0 1 80.453 29.296 A 2.137 2.137 0 0 1 80.38 29.46 A 4.699 4.699 0 0 0 80.204 29.858 A 5.659 5.659 0 0 0 80.11 30.12 Q 80.11 30.232 80.136 30.369 A 1.937 1.937 0 0 0 80.14 30.39 Q 80.17 30.54 80.17 30.66 Q 80.17 30.985 79.999 31.359 A 2.617 2.617 0 0 1 79.96 31.44 Q 79.75 31.86 79.57 32.28 A 0.642 0.642 0 0 0 79.455 32.289 Q 79.396 32.3 79.352 32.324 A 0.212 0.212 0 0 0 79.24 32.49 A 0.624 0.624 0 0 1 79.136 32.753 A 0.865 0.865 0 0 1 79.03 32.88 Q 78.97 33 78.85 33.06 Q 78.73 33.12 78.61 33.24 A 1.506 1.506 0 0 0 78.262 33.331 A 1.157 1.157 0 0 0 77.92 33.54 A 0.897 0.897 0 0 1 77.563 33.73 Q 77.432 33.768 77.277 33.777 A 1.783 1.783 0 0 1 77.17 33.78 Q 77.134 33.78 77.12 33.769 A 0.023 0.023 0 0 1 77.11 33.75 Q 77.11 33.72 76.993 33.72 A 0.919 0.919 0 0 0 76.99 33.72 A 0.217 0.217 0 0 0 76.885 33.749 Q 76.849 33.768 76.814 33.801 A 0.616 0.616 0 0 0 76.75 33.87 A 1.085 1.085 0 0 1 76.668 33.962 Q 76.622 34.008 76.576 34.04 A 0.511 0.511 0 0 1 76.51 34.08 Q 76.461 34.129 76.333 34.138 A 0.89 0.89 0 0 1 76.27 34.14 Q 76.03 34.14 75.79 34.08 A 2.368 2.368 0 0 0 75.618 34.043 Q 75.529 34.028 75.45 34.023 A 1.202 1.202 0 0 0 75.37 34.02 A 2.436 2.436 0 0 0 75.246 33.923 Q 74.983 33.731 74.86 33.78 A 0.276 0.276 0 0 1 74.757 33.8 Q 74.667 33.8 74.569 33.744 A 0.64 0.64 0 0 1 74.53 33.72 L 74.41 33.6 Q 74.36 33.55 74.269 33.542 A 0.422 0.422 0 0 0 74.23 33.54 A 0.086 0.086 0 0 0 74.206 33.543 Q 74.18 33.551 74.173 33.578 A 0.088 0.088 0 0 0 74.17 33.6 Q 74.17 33.711 73.709 33.463 A 6.397 6.397 0 0 1 73.63 33.42 A 11.69 11.69 0 0 1 73.004 33.045 A 15.081 15.081 0 0 1 72.49 32.7 A 28.995 28.995 0 0 1 72.282 32.553 Q 71.871 32.26 71.772 32.162 A 0.465 0.465 0 0 1 71.77 32.16 A 6.105 6.105 0 0 1 71.47 31.837 A 7.351 7.351 0 0 1 71.29 31.62 Q 71.05 31.32 70.75 31.08 A 9.17 9.17 0 0 1 69.659 29.994 A 8.172 8.172 0 0 1 69.4 29.67 Q 68.83 28.92 68.29 28.14 Q 67.99 27.66 67.54 27.27 A 5.151 5.151 0 0 1 67.081 26.822 A 4.155 4.155 0 0 1 66.79 26.46 A 1.001 1.001 0 0 1 66.724 26.29 A 1.227 1.227 0 0 1 66.7 26.19 A 0.352 0.352 0 0 0 66.667 26.094 A 0.261 0.261 0 0 0 66.55 25.98 Q 66.51 25.9 66.456 25.86 A 0.199 0.199 0 0 0 66.4 25.83 A 1.18 1.18 0 0 1 66.328 25.803 Q 66.289 25.787 66.245 25.766 A 2.41 2.41 0 0 1 66.19 25.74 L 65.83 25.26 Q 65.65 25.02 65.53 24.78 A 1.001 1.001 0 0 1 65.464 24.61 A 1.227 1.227 0 0 1 65.44 24.51 A 0.352 0.352 0 0 0 65.407 24.414 A 0.261 0.261 0 0 0 65.29 24.3 Q 65.23 24.18 65.11 24.12 Q 64.99 24.06 64.93 23.94 A 0.795 0.795 0 0 1 64.843 23.831 Q 64.671 23.583 64.39 22.95 A 3.664 3.664 0 0 0 64.178 22.539 Q 63.915 22.106 63.6 21.926 A 1.045 1.045 0 0 0 63.55 21.9 A 13.792 13.792 0 0 0 63.465 21.971 Q 63.239 22.163 63.179 22.234 A 0.146 0.146 0 0 0 63.16 22.26 Q 63.13 22.32 63.07 22.35 L 62.53 22.62 Q 62.474 22.676 62.418 22.757 A 1.37 1.37 0 0 0 62.41 22.77 A 0.919 0.919 0 0 1 62.362 22.835 Q 62.335 22.868 62.302 22.904 A 2.244 2.244 0 0 1 62.23 22.98 A 0.921 0.921 0 0 1 61.919 23.111 A 1.131 1.131 0 0 1 61.81 23.13 Q 61.571 23.16 61.629 23.279 A 0.155 0.155 0 0 0 61.63 23.28 A 2.408 2.408 0 0 1 61.255 23.431 A 2.146 2.146 0 0 1 61.15 23.46 Q 60.91 23.52 60.61 23.58 Q 60.386 23.972 59.349 24.391 A 9.584 9.584 0 0 1 59.2 24.45 Q 58.074 24.883 57.531 25.122 A 11.63 11.63 0 0 0 57.49 25.14 A 0.546 0.546 0 0 0 57.393 25.204 Q 57.348 25.239 57.303 25.288 A 1.161 1.161 0 0 0 57.25 25.35 A 3.51 3.51 0 0 1 57.1 25.526 A 2.913 2.913 0 0 1 57.01 25.62 A 0.492 0.492 0 0 1 56.836 25.731 Q 56.77 25.756 56.691 25.768 A 0.872 0.872 0 0 1 56.68 25.77 Q 56.47 25.8 56.29 25.92 Q 56.23 25.98 56.14 26.16 A 0.807 0.807 0 0 1 56.081 26.261 Q 56.013 26.359 55.93 26.4 Q 55.894 26.4 55.88 26.389 A 0.023 0.023 0 0 1 55.87 26.37 Q 55.87 26.34 55.753 26.34 A 0.919 0.919 0 0 0 55.75 26.34 Q 55.628 26.34 55.552 26.379 A 0.209 0.209 0 0 0 55.45 26.49 Q 55.398 26.619 55.303 26.77 A 2.654 2.654 0 0 1 55.27 26.82 Q 55.09 27 54.82 27 A 0.615 0.615 0 0 0 54.705 27.01 Q 54.536 27.042 54.49 27.18 Q 54.13 27.3 53.77 27.36 A 3.411 3.411 0 0 0 53.343 27.458 A 2.845 2.845 0 0 0 53.11 27.54 Q 52.81 27.66 52.63 27.96 A 1.052 1.052 0 0 1 52.405 28.228 A 0.934 0.934 0 0 1 52.15 28.38 A 3.454 3.454 0 0 1 51.894 28.496 Q 51.586 28.62 51.37 28.62 Z M 3.97 22.98 L 3.97 23.58 Q 3.97 23.94 4.18 23.73 A 0.548 0.548 0 0 1 4.219 23.694 Q 4.38 23.562 4.439 23.775 A 0.625 0.625 0 0 1 4.45 23.82 Q 4.57 24.24 4.63 24.33 Q 4.689 24.419 5.099 24.654 A 9.805 9.805 0 0 0 5.11 24.66 A 2.991 2.991 0 0 0 5.303 24.99 A 3.547 3.547 0 0 0 5.41 25.14 L 5.77 25.62 L 5.77 25.74 A 0.842 0.842 0 0 0 5.791 25.933 Q 5.84 26.144 6.01 26.25 Q 6.25 26.4 6.55 26.58 L 7.33 27.42 A 0.578 0.578 0 0 0 7.281 27.555 A 0.49 0.49 0 0 0 7.27 27.66 Q 7.27 27.937 7.501 28.072 A 0.755 0.755 0 0 0 7.66 28.14 Q 8.024 28.252 8.31 28.364 A 6.404 6.404 0 0 1 8.35 28.38 Q 8.407 28.437 8.971 28.894 A 136.74 136.74 0 0 0 9.04 28.95 Q 9.583 29.39 9.837 29.54 A 1.202 1.202 0 0 0 9.91 29.58 Q 10.21 29.76 10.57 29.97 A 3.998 3.998 0 0 0 11.088 30.225 A 3.487 3.487 0 0 0 11.29 30.3 Q 11.389 30.3 11.489 30.382 A 0.597 0.597 0 0 1 11.53 30.42 A 6.919 6.919 0 0 0 12.409 30.7 Q 12.881 30.814 13.313 30.835 A 3.988 3.988 0 0 0 13.51 30.84 Q 14.217 30.84 15.094 30.585 A 9.084 9.084 0 0 0 15.43 30.48 Q 15.609 30.42 15.758 30.39 A 2.512 2.512 0 0 1 15.76 30.39 A 3.147 3.147 0 0 1 15.827 30.377 Q 15.92 30.361 15.966 30.36 A 0.259 0.259 0 0 1 15.97 30.36 A 0.399 0.399 0 0 1 16.033 30.365 Q 16.145 30.383 16.15 30.471 A 0.151 0.151 0 0 1 16.15 30.48 Q 16.15 30.729 15.778 30.978 A 2.384 2.384 0 0 1 15.61 31.08 A 0.11 0.11 0 0 1 15.593 31.143 Q 15.564 31.186 15.486 31.197 A 0.416 0.416 0 0 1 15.43 31.2 A 2.291 2.291 0 0 0 15.04 31.337 A 2.61 2.61 0 0 0 14.95 31.38 A 0.771 0.771 0 0 1 14.77 31.445 Q 14.62 31.478 14.47 31.44 Q 14.17 31.44 13.99 31.38 A 0.241 0.241 0 0 0 13.914 31.368 Q 13.775 31.368 13.581 31.506 A 1.619 1.619 0 0 0 13.51 31.56 Q 12.795 31.505 11.928 31.248 A 11.189 11.189 0 0 1 11.77 31.2 A 11.675 11.675 0 0 1 11.04 30.946 Q 10.682 30.808 10.379 30.659 A 6.224 6.224 0 0 1 10.15 30.54 A 0.564 0.564 0 0 0 10.078 30.326 Q 9.993 30.185 9.819 30.128 A 0.83 0.83 0 0 0 9.61 30.09 A 1.724 1.724 0 0 1 9.262 30.035 Q 9.036 29.973 8.865 29.847 A 1.071 1.071 0 0 1 8.83 29.82 Q 8.59 29.52 8.44 29.16 A 0.408 0.408 0 0 0 8.383 29.061 Q 8.212 28.849 7.81 29.1 A 9.055 9.055 0 0 0 7.638 28.933 Q 7.57 28.868 7.508 28.813 A 4.365 4.365 0 0 0 7.39 28.71 Q 7.256 28.598 7.021 28.57 A 1.425 1.425 0 0 0 6.85 28.56 A 1.117 1.117 0 0 0 6.747 28.47 Q 6.689 28.424 6.617 28.379 A 2.324 2.324 0 0 0 6.52 28.32 A 0.382 0.382 0 0 1 6.432 28.253 Q 6.338 28.154 6.361 28.002 A 0.477 0.477 0 0 1 6.37 27.96 A 5.778 5.778 0 0 0 6.233 27.861 Q 5.968 27.675 5.44 27.33 A 30.694 30.694 0 0 1 5.201 27.173 Q 4.744 26.868 4.637 26.767 A 0.396 0.396 0 0 1 4.63 26.76 Q 4.09 26.16 3.43 25.74 L 3.25 25.62 Q 4.03 27.96 5.14 30.18 Q 6.25 32.4 8.41 33.78 Q 9.422 34.375 10.286 34.764 A 14.138 14.138 0 0 0 10.3 34.77 A 4.553 4.553 0 0 0 11.268 35.085 A 3.77 3.77 0 0 0 12.01 35.16 A 3.626 3.626 0 0 0 13.409 34.861 Q 13.942 34.639 14.494 34.253 A 8.762 8.762 0 0 0 15.31 33.6 A 14.75 14.75 0 0 0 17.231 31.433 A 17.72 17.72 0 0 0 18.01 30.27 Q 19.21 28.32 20.17 26.16 Q 21.13 24 21.85 22.14 L 22.03 21.96 L 22.15 21.84 Q 22.33 21.42 22.42 20.85 A 10.883 10.883 0 0 1 22.492 20.444 Q 22.555 20.123 22.63 19.86 Q 22.93 19.5 23.2 18.99 A 2.5 2.5 0 0 0 23.389 18.534 A 1.867 1.867 0 0 0 23.47 18 L 23.59 17.7 Q 23.702 17.644 23.553 17.536 A 0.703 0.703 0 0 0 23.53 17.52 Q 23.358 17.405 23.733 17.346 A 2.269 2.269 0 0 1 23.77 17.34 A 3.589 3.589 0 0 0 24.138 16.588 A 3.016 3.016 0 0 0 24.28 15.99 A 3.871 3.871 0 0 1 24.342 15.635 Q 24.437 15.216 24.61 15 A 6.991 6.991 0 0 1 24.813 14.681 A 5.548 5.548 0 0 1 24.97 14.46 Q 25.15 14.22 25.03 13.86 A 2.675 2.675 0 0 1 25.062 13.746 Q 25.145 13.469 25.379 12.807 A 76.335 76.335 0 0 1 25.42 12.69 Q 25.75 11.76 26.17 10.62 Q 26.59 9.48 26.89 8.61 A 36.53 36.53 0 0 0 26.96 8.404 Q 27.19 7.725 27.19 7.62 L 27.85 5.88 A 107.968 107.968 0 0 0 24.428 6.058 A 119.501 119.501 0 0 0 24.4 6.06 Q 22.63 6.18 20.95 6.6 Q 21.01 6.54 20.891 6.451 A 0.554 0.554 0 0 0 20.89 6.45 A 0.991 0.991 0 0 0 20.84 6.415 Q 20.757 6.36 20.71 6.36 L 20.65 6.3 Q 20.41 6.24 20.56 6.39 Q 20.71 6.54 20.47 6.66 A 5.425 5.425 0 0 0 19.969 6.741 Q 19.628 6.812 19.24 6.93 Q 18.55 7.14 18.01 7.14 A 1.346 1.346 0 0 1 17.777 7.176 Q 17.649 7.185 17.507 7.173 A 2.129 2.129 0 0 1 17.47 7.17 Q 17.17 7.14 16.87 7.14 A 4.724 4.724 0 0 0 15.263 7.544 A 5.434 5.434 0 0 0 15.1 7.62 Q 14.23 8.04 13.33 8.34 L 12.25 8.64 A 5.34 5.34 0 0 1 11.098 9.009 A 6.152 6.152 0 0 1 10.81 9.06 A 5.654 5.654 0 0 0 9.713 9.339 A 5.026 5.026 0 0 0 9.37 9.48 L 9.43 9.54 A 1.199 1.199 0 0 1 9.108 9.71 A 1.642 1.642 0 0 1 8.83 9.78 A 3.411 3.411 0 0 0 8.403 9.878 A 2.845 2.845 0 0 0 8.17 9.96 A 16.65 16.65 0 0 0 6.98 10.409 A 18.69 18.69 0 0 0 6.7 10.53 Q 5.95 10.86 5.17 11.1 Q 4.75 11.22 4.36 11.31 Q 3.97 11.4 3.49 11.58 A 7.217 7.217 0 0 1 3.318 11.621 Q 3.233 11.64 3.158 11.654 A 3.81 3.81 0 0 1 3.07 11.67 Q 2.915 11.696 2.716 11.699 A 3.642 3.642 0 0 1 2.65 11.7 A 2.073 2.073 0 0 1 2.095 11.628 A 1.759 1.759 0 0 1 1.69 11.46 A 0.78 0.78 0 0 1 1.558 11.373 Q 1.338 11.199 1 10.77 Q 0.55 10.2 0.25 9.57 Q -0.05 8.94 0.01 8.64 Q 0.07 8.46 0.79 8.19 Q 1.409 7.958 2.205 7.726 A 29.138 29.138 0 0 1 2.47 7.65 Q 3.43 7.38 4.24 7.17 Q 5.05 6.96 5.29 6.9 A 0.498 0.498 0 0 1 5.359 6.873 Q 5.483 6.834 5.756 6.784 A 12.03 12.03 0 0 1 5.95 6.75 Q 6.49 6.66 6.55 6.9 Q 6.602 7.003 6.476 7.173 A 1.038 1.038 0 0 1 6.43 7.23 Q 6.269 7.418 6.156 7.534 A 2.993 2.993 0 0 1 6.13 7.56 A 0.093 0.093 0 0 1 6.123 7.592 Q 6.103 7.643 6.031 7.736 A 2.255 2.255 0 0 1 5.98 7.8 A 1.661 1.661 0 0 0 5.956 7.829 Q 5.848 7.966 5.937 7.926 A 0.303 0.303 0 0 0 5.95 7.92 L 8.05 7.38 Q 8.53 7.26 9.22 7.29 A 3.474 3.474 0 0 0 9.351 7.293 Q 9.744 7.296 10.019 7.201 A 1.079 1.079 0 0 0 10.27 7.08 A 0.74 0.74 0 0 0 10.345 6.994 Q 10.401 6.917 10.42 6.84 A 0.143 0.143 0 0 1 10.519 6.736 Q 10.565 6.72 10.63 6.72 Q 10.947 6.63 11.587 6.539 A 23.31 23.31 0 0 1 12.04 6.48 Q 12.934 6.372 13.216 6.165 A 0.456 0.456 0 0 0 13.27 6.12 A 5.287 5.287 0 0 1 14.057 5.987 A 6.075 6.075 0 0 1 14.29 5.97 A 2.329 2.329 0 0 0 14.86 5.87 A 1.975 1.975 0 0 0 15.25 5.7 A 1.361 1.361 0 0 1 15.346 5.673 Q 15.568 5.618 16.151 5.509 A 62.854 62.854 0 0 1 16.42 5.46 Q 17.271 5.305 18.343 5.128 A 174.946 174.946 0 0 1 18.7 5.07 Q 19.904 4.874 20.873 4.73 A 108.489 108.489 0 0 1 21.01 4.71 Q 21.918 4.576 22.161 4.562 A 0.847 0.847 0 0 1 22.21 4.56 L 22.27 4.56 Q 22.51 4.56 22.75 4.5 Q 22.99 4.44 23.23 4.44 A 1.087 1.087 0 0 1 23.237 4.44 Q 23.645 4.443 23.701 4.754 A 0.602 0.602 0 0 1 23.71 4.86 Q 23.77 4.92 24.01 4.92 A 1.561 1.561 0 0 0 24.351 4.885 Q 24.582 4.833 24.751 4.706 A 0.929 0.929 0 0 0 24.85 4.62 A 1.281 1.281 0 0 0 25.03 4.561 Q 25.127 4.521 25.204 4.467 A 0.739 0.739 0 0 0 25.24 4.44 Q 25.378 4.329 25.593 4.27 A 1.477 1.477 0 0 1 25.63 4.26 A 6.054 6.054 0 0 1 26.508 4.168 Q 26.768 4.159 27.04 4.17 Q 27.766 4.199 28.351 4.2 A 24.257 24.257 0 0 0 28.39 4.2 A 5.392 5.392 0 0 1 28.631 3.739 Q 28.91 3.266 29.214 3.026 A 1.427 1.427 0 0 1 29.29 2.97 A 1.575 1.575 0 0 1 29.707 2.772 Q 30.123 2.64 30.73 2.64 A 1.039 1.039 0 0 1 31.063 2.69 Q 31.374 2.795 31.517 3.121 A 1.184 1.184 0 0 1 31.57 3.27 A 5.499 5.499 0 0 1 31.68 3.721 Q 31.726 3.957 31.742 4.167 A 2.833 2.833 0 0 1 31.75 4.38 Q 32.05 4.38 32.53 4.35 A 15.352 15.352 0 0 1 33.153 4.324 A 18.252 18.252 0 0 1 33.55 4.32 Q 34.09 4.32 34.6 4.38 Q 34.932 4.419 35.175 4.484 A 2.052 2.052 0 0 1 35.41 4.56 Q 35.466 4.391 35.707 4.407 A 0.734 0.734 0 0 1 35.74 4.41 Q 35.953 4.434 36.073 4.476 A 0.506 0.506 0 0 1 36.13 4.5 A 2.038 2.038 0 0 0 37.054 4.713 A 2.389 2.389 0 0 0 37.18 4.71 Q 37.75 4.68 38.29 4.92 Q 38.83 5.1 39.31 5.34 A 7.732 7.732 0 0 0 40.263 5.737 A 8.484 8.484 0 0 0 40.33 5.76 A 2.409 2.409 0 0 1 40.654 5.864 Q 40.821 5.932 40.952 6.021 A 1.23 1.23 0 0 1 41.08 6.12 A 5.979 5.979 0 0 0 41.304 6.308 Q 41.406 6.39 41.522 6.478 A 11.998 11.998 0 0 0 41.77 6.66 A 3.41 3.41 0 0 1 42.006 6.852 Q 42.23 7.054 42.33 7.236 A 0.759 0.759 0 0 1 42.37 7.32 L 42.43 7.53 A 0.514 0.514 0 0 1 42.438 7.56 Q 42.474 7.722 42.335 7.687 A 0.332 0.332 0 0 1 42.31 7.68 A 0.31 0.31 0 0 1 42.265 7.676 Q 42.242 7.673 42.216 7.666 A 0.775 0.775 0 0 1 42.16 7.65 Q 42.072 7.621 42.013 7.678 A 0.167 0.167 0 0 0 42.01 7.68 Q 42.01 7.92 42.19 8.1 Q 42.31 8.16 42.46 8.1 Q 42.584 8.051 42.646 8.001 A 0.276 0.276 0 0 0 42.67 7.98 Q 42.873 7.98 42.926 8.152 A 0.403 0.403 0 0 1 42.94 8.22 Q 42.97 8.46 43.03 8.7 Q 43.21 9.42 43.21 10.14 A 3.717 3.717 0 0 1 43.127 10.897 Q 43.054 11.246 42.918 11.625 A 6.88 6.88 0 0 1 42.82 11.88 A 5.367 5.367 0 0 1 42.129 13.109 A 4.823 4.823 0 0 1 41.77 13.53 A 2.294 2.294 0 0 1 41.111 14.019 A 2.044 2.044 0 0 1 40.21 14.22 Q 39.91 14.22 39.73 14.16 A 4.144 4.144 0 0 1 39.514 14.095 Q 39.208 13.994 39.113 13.892 A 0.136 0.136 0 0 1 39.07 13.8 Q 39.07 13.653 39.469 13.347 A 5.673 5.673 0 0 1 39.67 13.2 Q 40.09 12.9 40.39 12.51 Q 40.69 12.12 40.93 11.7 Q 41.309 11.429 41.541 10.671 A 4.851 4.851 0 0 0 41.59 10.5 Q 41.83 9.6 41.83 8.82 A 3.26 3.26 0 0 0 41.81 8.444 Q 41.788 8.261 41.745 8.107 A 1.428 1.428 0 0 0 41.65 7.86 Q 41.593 7.86 41.185 7.266 A 23.906 23.906 0 0 1 41.14 7.2 Q 40.69 6.54 40.09 6.48 Q 39.79 6.36 39.46 6.24 A 4.708 4.708 0 0 0 39.069 6.116 A 3.828 3.828 0 0 0 38.83 6.06 Q 38.636 5.866 38.149 5.751 A 4.2 4.2 0 0 0 37.9 5.7 Q 37.21 5.58 36.49 5.52 A 28.7 28.7 0 0 0 36.153 5.494 Q 35.828 5.471 35.599 5.463 A 6.01 6.01 0 0 0 35.41 5.46 A 10.142 10.142 0 0 0 35.237 5.462 Q 34.995 5.466 34.592 5.48 A 89.199 89.199 0 0 0 34.33 5.49 L 32.77 5.55 Q 31.99 5.58 31.69 5.58 A 3.721 3.721 0 0 1 31.301 6.395 A 2.317 2.317 0 0 1 29.83 7.44 A 3.98 3.98 0 0 1 29.795 7.539 Q 29.71 7.772 29.465 8.404 A 238.168 238.168 0 0 1 29.35 8.7 Q 28.93 9.78 28.45 11.07 Q 28.038 12.179 27.691 13.066 A 91.856 91.856 0 0 1 27.58 13.35 A 161.457 161.457 0 0 1 27.488 13.584 Q 27.183 14.355 27.13 14.46 L 26.77 14.94 Q 26.59 15.18 26.53 15.48 A 3.022 3.022 0 0 1 26.465 15.855 Q 26.372 16.26 26.161 16.81 A 13.693 13.693 0 0 1 26.02 17.16 Q 25.57 18.24 25.06 19.29 Q 24.55 20.34 24.25 21 Q 23.908 21.228 23.674 21.375 A 13.1 13.1 0 0 1 23.65 21.39 A 0.221 0.221 0 0 0 23.588 21.446 Q 23.471 21.605 23.757 21.945 A 2.122 2.122 0 0 0 23.77 21.96 A 1.84 1.84 0 0 1 23.707 22.093 Q 23.559 22.375 23.41 22.35 Q 23.272 22.327 23.064 22.286 A 27.494 27.494 0 0 1 22.93 22.26 A 1.466 1.466 0 0 0 22.963 22.396 Q 23.004 22.529 23.061 22.601 A 0.268 0.268 0 0 0 23.11 22.65 Q 23.23 22.74 23.29 23.04 A 96.33 96.33 0 0 1 22.896 23.913 Q 22.718 24.304 22.517 24.738 A 193.571 193.571 0 0 1 22.09 25.65 A 17.685 17.685 0 0 1 21.573 26.668 Q 21.313 27.138 21.054 27.526 A 8.057 8.057 0 0 1 20.65 28.08 Q 20.359 28.205 20.155 28.329 A 2.071 2.071 0 0 0 19.99 28.44 Q 19.762 28.611 19.966 29.105 A 2.229 2.229 0 0 0 19.99 29.16 A 0.722 0.722 0 0 0 19.841 29.379 A 0.887 0.887 0 0 0 19.81 29.46 L 19.69 29.82 L 19.21 30.54 A 8.121 8.121 0 0 0 18.79 30.878 A 8.904 8.904 0 0 0 18.73 30.93 Q 18.508 31.124 18.491 31.497 A 1.389 1.389 0 0 0 18.49 31.56 Q 18.267 31.894 18.096 32.073 A 1.641 1.641 0 0 1 18.07 32.1 A 2.578 2.578 0 0 0 17.778 32.216 Q 17.627 32.288 17.504 32.375 A 1.533 1.533 0 0 0 17.47 32.4 Q 17.292 32.534 17.246 32.832 A 1.502 1.502 0 0 0 17.23 33.06 Q 16.03 34.38 14.56 35.16 A 6.571 6.571 0 0 1 12.4 35.878 A 6.143 6.143 0 0 1 11.53 35.94 A 6.467 6.467 0 0 1 8.399 35.104 Q 7.494 34.611 6.612 33.826 A 12.249 12.249 0 0 1 6.43 33.66 A 1.021 1.021 0 0 1 6.003 33.379 A 1.448 1.448 0 0 1 5.83 33.15 Q 5.59 32.76 5.35 32.52 A 1.523 1.523 0 0 1 5.148 32.448 Q 4.912 32.342 4.82 32.179 A 0.451 0.451 0 0 1 4.81 32.16 Q 4.69 31.92 4.57 31.56 A 0.094 0.094 0 0 0 4.562 31.524 Q 4.541 31.474 4.467 31.397 A 1.25 1.25 0 0 0 4.45 31.38 L 4.33 31.26 L 4.21 31.14 A 0.188 0.188 0 0 1 4.198 31.14 Q 4.153 31.137 4.18 31.11 L 4.21 31.08 A 11.31 11.31 0 0 1 4.101 30.857 Q 3.958 30.554 3.912 30.397 A 1.001 1.001 0 0 1 3.91 30.39 Q 3.852 30.187 3.457 29.843 A 4.914 4.914 0 0 0 3.43 29.82 A 0.592 0.592 0 0 1 3.351 29.72 Q 3.279 29.607 3.22 29.43 L 3.07 28.98 Q 2.41 27.42 1.9 25.77 Q 1.39 24.12 1.39 22.38 A 1.594 1.594 0 0 1 1.425 22.034 Q 1.477 21.803 1.603 21.635 A 0.916 0.916 0 0 1 1.75 21.48 A 1.353 1.353 0 0 1 2.095 21.267 A 1.12 1.12 0 0 1 2.53 21.18 Q 3.174 21.18 3.45 21.712 A 1.489 1.489 0 0 1 3.55 21.96 Q 3.67 22.2 3.82 22.47 A 1.357 1.357 0 0 1 3.916 22.68 Q 3.97 22.836 3.97 22.98 Z M 41.593 32.67 Q 41.591 32.67 41.59 32.67" vector-effect="non-scaling-stroke"/></g></svg>